<svg xmlns="http://www.w3.org/2000/svg" width="47.77" height="36.404" viewBox="0 0 47.77 36.404">
  <defs>
    <style>
      .cls-1 {
        fill: #fff;
      }
    </style>
  </defs>
  <path id="SingOut" class="cls-1" d="M47.108,83.791,31.184,99.715A2.279,2.279,0,0,1,27.3,98.1V89H14.407a2.269,2.269,0,0,1-2.275-2.275v-9.1a2.269,2.269,0,0,1,2.275-2.275H27.3v-9.1a2.28,2.28,0,0,1,3.886-1.611L47.108,80.568A2.294,2.294,0,0,1,47.108,83.791ZM18.2,99.241V95.45a1.141,1.141,0,0,0-1.137-1.137H9.1a3.03,3.03,0,0,1-3.033-3.033V73.08A3.03,3.03,0,0,1,9.1,70.047h7.962A1.141,1.141,0,0,0,18.2,68.91V65.118a1.141,1.141,0,0,0-1.137-1.137H9.1A9.1,9.1,0,0,0,0,73.08v18.2a9.1,9.1,0,0,0,9.1,9.1h7.962A1.141,1.141,0,0,0,18.2,99.241Z" transform="translate(0 -63.979)"/>
</svg>
