<svg xmlns="http://www.w3.org/2000/svg" width="42.624" height="42.624" viewBox="0 0 42.624 42.624">
  <defs>
    <style>
      .cls-1 {
        fill: #fff;
      }
    </style>
  </defs>
  <path id="Cvs" class="cls-1" d="M1.332,23.976A1.336,1.336,0,0,0,0,25.308v2.664A1.336,1.336,0,0,0,1.332,29.3h9.324V23.976ZM42.041,8.741,33.891.583A2,2,0,0,0,32.476,0h-.508V10.656H42.624v-.508A1.992,1.992,0,0,0,42.041,8.741ZM29.3,11.322V0H12.654a1.993,1.993,0,0,0-2,2V23.976H21.312V18.548a1.335,1.335,0,0,1,2.281-.941l7.959,8.034a1.417,1.417,0,0,1,0,2l-7.967,8.025a1.335,1.335,0,0,1-2.281-.941V29.3H10.656V40.626a1.993,1.993,0,0,0,2,2H40.626a1.993,1.993,0,0,0,2-2V13.32H31.3A2,2,0,0,1,29.3,11.322Z"/>
</svg>
